<svg xmlns="http://www.w3.org/2000/svg" viewBox="0 0 600 180" width="600" height="180">
      <defs>
        <linearGradient id="dropGrad" x1="0%" y1="0%" x2="100%" y2="100%">
          <stop offset="0%" style="stop-color:#7DD6FF;stop-opacity:1" />
          <stop offset="50%" style="stop-color:#3A9FE8;stop-opacity:1" />
          <stop offset="100%" style="stop-color:#1B5FAA;stop-opacity:1" />
        </linearGradient>
        <linearGradient id="boltGrad" x1="0%" y1="0%" x2="0%" y2="100%">
          <stop offset="0%" style="stop-color:#FFE066;stop-opacity:1" />
          <stop offset="100%" style="stop-color:#F5821F;stop-opacity:1" />
        </linearGradient>
        <filter id="shadow" x="-20%" y="-20%" width="140%" height="140%">
          <feDropShadow dx="0" dy="3" stdDeviation="4" flood-color="#000000" flood-opacity="0.25"/>
        </filter>
        <filter id="glow">
          <feGaussianBlur stdDeviation="2" result="blur"/>
          <feMerge><feMergeNode in="blur"/><feMergeNode in="SourceGraphic"/></feMerge>
        </filter>
      </defs>

      <g transform="translate(28, 18)" filter="url(#shadow)">
        <path d="M62 6 C62 6 20 54 20 86 C20 112 39 132 62 132 C85 132 104 112 104 86 C104 54 62 6 62 6Z" fill="url(#dropGrad)"/>
        <path d="M62 6 C62 6 38 54 38 86 C38 98 43 110 51 119 C36 111 20 100 20 86 C20 54 62 6 62 6Z" fill="white" opacity="0.18"/>
        <ellipse cx="45" cy="68" rx="5" ry="8" fill="white" opacity="0.3" transform="rotate(-20,45,68)"/>
        <polygon points="68,30 47,78 64,78 55,118 84,62 66,62 78,30" fill="url(#boltGrad)" filter="url(#glow)"/>
      </g>

      <text x="148" y="90" font-family="'Arial Black', 'Arial Bold', Arial, sans-serif" font-weight="900" font-size="72" fill="#FFFFFF" letter-spacing="3">BABA</text>
      <text x="150" y="124" font-family="Arial, Helvetica, sans-serif" font-weight="700" font-size="22" fill="#FFFFFF" letter-spacing="6">ENGINEERING</text>
      <text x="368" y="124" font-family="Arial, Helvetica, sans-serif" font-weight="700" font-size="22" fill="#F5A020" letter-spacing="5">SOLUTIONS</text>
      <text x="150" y="152" font-family="Arial, Helvetica, sans-serif" font-weight="600" font-size="12" fill="rgba(255,255,255,0.75)" letter-spacing="5">WATER  ·  POWER  ·  CIVIL</text>
    </svg>